HIERARCHY
ROOT Hips
{
	OFFSET 0.00000 0.00000 0.00000
	CHANNELS 6 Xposition Yposition Zposition Yrotation Zrotation Xrotation 
	JOINT Lumbar
	{
		OFFSET 0 0 0
		CHANNELS 3 Zrotation Xrotation Yrotation
		JOINT Neck
		{
			OFFSET 0.00 0.2701 0.00
			CHANNELS 3 Zrotation Xrotation Yrotation
			End Site
			{
				OFFSET 0.00 0.1379 0.00
			}
		}
		JOINT RightShoulder
		{
			OFFSET 0.0119 0.2289 0.1181
			CHANNELS 3 Zrotation Xrotation Yrotation
			JOINT RightElbow
			{
				OFFSET 0.00 -0.1475 0.00
				CHANNELS 2 Zrotation Yrotation
				JOINT RightWrist
				{
					OFFSET 0.00 -0.1605 0.00
					CHANNELS 2 Zrotation Xrotation
					End Site
					{
						OFFSET 0.0040 -0.1068 0.0006
					}
				}
			}
		}
		JOINT LeftShoulder
		{
			OFFSET 0.0119 0.2289 -0.1181
			CHANNELS 3 Zrotation Xrotation Yrotation
			JOINT LeftElbow
			{
				OFFSET 0.00 -0.1475 0.00
				CHANNELS 2 Zrotation Yrotation
				JOINT LeftWrist
				{
					OFFSET 0.00 -0.1605 0.00
					CHANNELS 2 Zrotation Xrotation
					End Site
					{
						OFFSET 0.0040 -0.1068 -0.0006
					}
				}
			}
		}
	}
	JOINT RightHip
	{
		OFFSET 0.0316 -0.0424 0.0458
		CHANNELS 3 Zrotation Xrotation Yrotation
		JOINT RightKnee
		{
			OFFSET 0.00 -0.2438 0.00
			CHANNELS 1 Zrotation
			JOINT RightAnkle
			{
				OFFSET 0.00 -0.2449 0.00
				CHANNELS 3 Zrotation Xrotation Yrotation
				End Site
				{
					OFFSET 0.1237 -0.0542 0.0051
				}
			}
		}
	}
	JOINT LeftHip
	{
		OFFSET 0.0316 -0.0424 -0.0458
		CHANNELS 3 Zrotation Xrotation Yrotation
		JOINT LeftKnee
		{
			OFFSET 0.00 -0.2438 0.00
			CHANNELS 1 Zrotation
			JOINT LeftAnkle
			{
				OFFSET 0.00 -0.2449 0.00
				CHANNELS 3 Zrotation Xrotation Yrotation
				End Site
				{
					OFFSET 0.1237 -0.0542 -0.0051
				}
			}
		}
	}
}
MOTION
Frames: 19
Frame Time: 0.02
0.0538 0.57899 0.13342 178.91735 0 7.26323 11.71653 2.94802 20.03877 -22.96319 -21.06995 -9.25474 -7.08158 -10.21294 55.63174 54.36134 141.92673 -66.71645 -11.19377 141.14245 67.46272 -54.61275 54.35509 -125.81906 45.2455 -1.27624 12.62434 -15.07132 11.73677 -36.44114 10.50887 -9.28866 -15.83276 -1.23003 -13.5793 -7.1183 -5.94911 5.15807 4.7631 3.09692
0.05434 0.57903 0.13314 178.84269 0 7.27215 11.58604 2.91177 20.10319 -22.94209 -21.15651 -9.34785 -7.13942 -10.07358 55.63273 54.28471 141.9584 -66.65208 -11.19964 141.08638 67.57404 -54.57812 54.25634 -125.88057 45.22746 -1.29229 12.71163 -15.06907 11.75424 -36.45123 10.49875 -9.3295 -15.69724 -1.17226 -13.50637 -6.0205 -5.95656 5.20709 4.22098 2.06442
0.0549 0.57911 0.13283 178.76987 0 7.26724 11.43524 2.88411 20.14999 -22.90541 -21.23594 -9.41743 -7.20117 -9.94414 55.63977 54.20653 141.97512 -66.62364 -11.20753 140.96647 67.72976 -54.53231 54.18508 -125.92509 45.24284 -1.305 12.78933 -15.06351 11.73425 -36.43417 10.47461 -9.37116 -15.52663 -1.11764 -13.41011 -4.78915 -5.95415 5.25531 3.42879 0.89964
0.05545 0.57917 0.13254 178.6984 0 7.26769 11.29356 2.85214 20.20316 -22.87768 -21.31667 -9.49753 -7.24209 -9.80489 55.6668 54.10012 141.98109 -66.63231 -11.2222 140.87624 67.86157 -54.49264 54.10229 -125.98163 45.24343 -1.3198 12.86946 -15.05817 11.73082 -36.42782 10.45626 -9.41006 -15.3747 -1.06156 -13.32576 -3.66119 -5.95664 5.30159 2.77946 -0.1637
0.05601 0.57923 0.13225 178.61779 0 7.27245 11.15187 2.82134 20.26438 -22.84209 -21.40615 -9.57906 -7.35901 -9.6848 55.60444 54.10638 142.05574 -66.42987 -11.20647 140.78283 68.00906 -54.44874 54.01525 -126.02042 45.2418 -1.33235 12.95789 -15.05824 11.73033 -36.42867 10.44073 -9.45899 -15.21195 -1.0055 -13.23492 -2.32876 -5.95704 5.35917 2.00704 -1.42597
0.05655 0.57931 0.13195 178.55655 0 7.26487 11.00541 2.79037 20.30426 -22.8191 -21.4755 -9.65165 -7.32425 -9.5305 55.72162 53.88887 141.99051 -66.65708 -11.25193 140.68119 68.13416 -54.41107 53.9438 -126.09121 45.25254 -1.34861 13.02682 -15.04646 11.71422 -36.40804 10.41592 -9.48742 -15.06284 -0.95025 -13.15281 -1.40489 -5.95953 5.39165 1.4332 -2.29076
0.05706 0.57945 0.13162 178.54901 0 7.2257 10.85247 2.75667 20.28884 -22.83513 -21.49111 -9.70629 -6.81968 -9.2528 56.40295 52.95756 141.48392 -68.22666 -11.4885 140.56984 68.19045 -54.39118 53.90704 -126.26442 45.2943 -1.37744 13.04287 -15.00017 11.66723 -36.33364 10.36813 -9.45696 -14.96361 -0.89564 -13.09557 -1.5757 -5.97075 5.36493 1.44679 -2.09229
0.05756 0.57961 0.13128 178.56066 0 7.17472 10.69514 2.72264 20.25261 -22.86412 -21.48663 -9.75232 -6.17119 -8.94503 57.25265 51.81779 140.84714 -70.19912 -11.78264 140.4526 68.22208 -54.37824 53.88538 -126.46874 45.3466 -1.40987 13.03989 -14.94248 11.60537 -36.23872 10.31156 -9.40618 -14.87873 -0.84189 -13.04881 -2.17469 -5.98436 5.31135 1.67171 -1.47663
0.05806 0.57975 0.13095 178.56325 0 7.12967 10.53883 2.6889 20.22601 -22.88716 -21.49122 -9.80173 -5.62196 -8.66899 57.97814 50.83843 140.30969 -71.87611 -12.0352 140.34019 68.2624 -54.36349 53.85781 -126.65225 45.39092 -1.43963 13.04642 -14.89174 11.54787 -36.1538 10.25947 -9.36613 -14.78468 -0.78835 -13.00069 -2.62693 -5.99658 5.26307 1.81525 -1.00248
0.05855 0.57991 0.1306 178.56784 0 7.08169 10.38612 2.65472 20.19757 -22.9107 -21.49581 -9.85316 -4.93183 -8.31851 58.90113 49.5874 139.60594 -74.01889 -12.35169 140.21775 68.31457 -54.34281 53.82697 -126.8629 45.44977 -1.47355 13.0488 -14.8336 11.49821 -36.065 10.20488 -9.31998 -14.70003 -0.73248 -12.93778 -2.88276 -6.00973 5.24264 1.89212 -0.72615
0.05906 0.58005 0.13029 178.57219 0 7.03727 10.22486 2.62142 20.16889 -22.93548 -21.49575 -9.89791 -4.49855 -8.11393 59.45778 48.84566 139.21306 -75.2991 -12.55021 140.11403 68.33605 -54.33609 53.80641 -127.02517 45.48054 -1.49983 13.05566 -14.788 11.43039 -35.97989 10.15352 -9.28146 -14.60039 -0.68151 -12.90797 -3.63792 -6.02166 5.15944 2.15637 0.05037
0.0596 0.58017 0.13008 178.57615 0 7.00477 10.04353 2.5895 20.13945 -22.96814 -21.48783 -9.93196 -4.83165 -8.3356 58.91704 49.62279 139.75187 -73.99128 -12.39548 140.07712 68.27487 -54.3678 53.80768 -127.04313 45.4301 -1.50328 13.07785 -14.78166 11.30582 -35.90889 10.11403 -9.27099 -14.44952 -0.64478 -12.9715 -5.78277 -6.02939 4.89578 2.93008 2.2173
0.06014 0.58027 0.12992 178.5781 0 6.97648 9.85327 2.55867 20.11166 -22.99952 -21.47616 -9.95824 -5.42503 -8.70199 58.0099 50.90844 140.60035 -71.82091 -12.12241 140.05677 68.18413 -54.41308 53.81864 -127.01299 45.35104 -1.49932 13.10568 -14.78805 11.16557 -35.84269 10.07804 -9.26853 -14.28424 -0.61277 -13.0673 -8.39466 -6.03592 4.57242 3.87834 4.85346
0.06068 0.58037 0.12974 178.57789 0 6.94684 9.66574 2.52803 20.08646 -23.02746 -21.46592 -9.98499 -5.88365 -8.99168 57.29994 51.92066 141.27999 -70.11645 -11.91245 140.02053 68.10935 -54.45114 53.82761 -127.00574 45.2857 -1.49907 13.13201 -14.78736 11.03941 -35.77511 10.03998 -9.26108 -14.13012 -0.57799 -13.14546 -10.71742 -6.04321 4.28543 4.71902 7.20217
0.06122 0.58048 0.12954 178.59197 0 6.91438 9.48414 2.49444 20.04595 -23.0758 -21.45525 -10.02598 -6.40294 -9.32687 56.46716 53.10333 142.07378 -68.11601 -11.66558 140.0204 68.02327 -54.49381 53.82915 -126.99116 45.21793 -1.4966 13.15285 -14.79157 10.88337 -35.70324 10.00357 -9.25858 -13.95774 -0.54587 -13.23637 -13.37893 -6.04961 3.95859 5.68543 9.87742
0.06176 0.58057 0.12939 178.57476 0 6.88898 9.28754 2.46733 20.03857 -23.07746 -21.44596 -10.03352 -6.8644 -9.60157 55.80002 54.0557 142.70498 -66.51943 -11.46612 139.94773 67.95377 -54.5301 53.84549 -126.98513 45.14806 -1.49804 13.18714 -14.78895 10.78596 -35.64195 9.96477 -9.248 -13.81885 -0.50931 -13.30845 -15.44105 -6.05763 3.70079 6.42965 11.98009
0.06227 0.58063 0.12934 178.47864 0 6.88171 9.05692 2.45717 20.11683 -22.9817 -21.43196 -9.96775 -7.06147 -9.67808 55.6875 54.23773 142.81272 -66.26898 -11.43166 139.68292 67.93991 -54.54435 53.9228 -126.97061 45.0806 -1.50299 13.25332 -14.76279 10.85486 -35.60665 9.91752 -9.21275 -13.78418 -0.45962 -13.31872 -15.72179 -6.06954 3.64979 6.50804 12.36851
0.06278 0.58067 0.12934 178.3499 0 6.88151 8.8106 2.45357 20.22895 -22.83287 -21.42141 -9.86515 -7.19967 -9.6881 55.75211 54.17324 142.74665 -66.44902 -11.44779 139.34272 67.9437 -54.5517 54.00955 -126.97444 45.01131 -1.51392 13.33353 -14.72968 10.98313 -35.58224 9.86795 -9.16928 -13.78213 -0.4053 -13.30908 -15.38157 -6.08316 3.67032 6.35709 12.16392
0.0633 0.58072 0.12932 178.23113 0 6.87838 8.56802 2.4475 20.3299 -22.68819 -21.41553 -9.76858 -7.39257 -9.72588 55.72972 54.22935 142.75986 -66.41682 -11.43704 139.02851 67.93742 -54.56311 54.07823 -126.99843 44.94255 -1.5279 13.41011 -14.70082 11.08411 -35.5544 9.82012 -9.12997 -13.75961 -0.35282 -13.30992 -15.33353 -6.09672 3.65701 6.31695 12.24323
